# Blender v2.92.0 OBJ File: ''
# www.blender.org
mtllib Toad_LoD4.mtl
o Toad
v 0.067391 1.044401 0.300758
v -0.156986 1.121548 0.258028
v -0.091439 0.667551 -0.368507
v -0.325511 0.753705 -0.208563
v 0.143102 0.703109 -0.380144
v -0.104525 0.886738 -0.516181
v 0.294994 0.710113 -0.206837
v 0.204947 0.898706 0.227987
v -0.180451 0.893532 0.240743
v 0.140165 0.917204 -0.508372
v -0.405243 0.958015 -0.007703
v -0.317352 0.803617 0.035398
v 0.317352 0.803617 0.035397
v 0.405244 0.958015 -0.007703
v 0.367467 1.112324 0.059768
v 0.055816 0.156077 0.138215
v 0.140183 0.136483 -0.057266
v 0.178294 0.247178 0.149350
v 0.228652 0.314308 -0.025176
v 0.160076 0.337956 0.158132
v 0.166517 0.290489 -0.128115
v 0.052317 0.293918 -0.168723
v -0.118369 0.209804 -0.157415
v -0.160076 0.337956 0.158132
v -0.053541 0.279403 0.214760
v -0.098074 0.129563 -0.080477
v -0.155473 0.300439 -0.131879
v -0.229541 0.315545 -0.024683
v -0.211423 0.198393 0.009262
v -0.135537 0.177896 0.127338
v 0.106018 0.433750 0.143481
v -0.086052 0.503897 0.103190
v -0.115101 0.416075 0.146853
v -0.176264 0.436085 -0.065865
v 0.176264 0.436085 -0.065865
v 0.175170 0.470126 0.019874
v 0.094546 0.538468 0.033224
v -0.040632 0.008629 0.179231
v 0.020553 0.041168 0.109227
v -0.153640 0.120755 0.157070
v 0.040632 0.008629 0.179231
v 0.195256 0.013606 0.135577
v -0.195256 0.013606 0.135577
v -0.000763 0.130736 0.106136
v -0.027037 0.093284 0.123675
v 0.153640 0.120755 0.157070
v 0.157190 0.523915 -0.047233
v -0.141531 0.010072 -0.113294
v -0.176679 0.090854 -0.082312
v -0.156992 0.163050 0.008466
v -0.023305 0.002029 -0.080778
v -0.030388 0.127081 -0.087720
v 0.099737 0.833181 0.166049
v 0.205726 0.760354 -0.000169
v 0.166672 0.627038 0.140935
v 0.149286 0.577509 -0.087446
v -0.000000 0.523316 -0.047881
v -0.158381 0.573807 -0.041807
v -0.121120 0.656846 -0.179612
v -0.207284 0.770792 0.022117
v -0.188278 0.625957 0.083260
v -0.125621 0.543099 -0.030693
v -0.173232 0.474546 0.021821
v -0.116412 0.662423 0.181135
v 0.054682 0.650101 -0.217579
v -0.000000 0.548579 -0.086161
v -0.306178 0.453502 -0.017126
v -0.016000 0.538356 0.146398
v 0.458568 0.364045 -0.015414
v 0.455158 0.364740 -0.048920
v 0.355109 0.382254 -0.000252
v 0.364209 0.342229 0.053498
v 0.297335 0.408003 0.020617
v 0.378090 0.423154 -0.058562
v 0.382687 0.394554 -0.060019
v 0.305584 0.398554 -0.085667
v 0.290219 0.365717 -0.033415
v 0.388507 0.412829 -0.013297
v 0.351777 0.421776 0.012844
v 0.426198 0.368340 -0.080051
v 0.306178 0.453502 -0.017126
v 0.446852 0.358615 0.018269
v 0.060130 0.642141 0.190412
v -0.018272 0.709932 0.222762
v -0.077275 0.837733 0.173284
v -0.355109 0.382254 -0.000251
v -0.458568 0.364045 -0.015414
v -0.290219 0.365717 -0.033414
v -0.305584 0.398554 -0.085667
v -0.378090 0.423154 -0.058562
v -0.382687 0.394554 -0.060019
v -0.426199 0.368339 -0.080050
v -0.297337 0.408003 0.020617
v -0.364205 0.342230 0.053495
v -0.351777 0.421776 0.012844
v -0.455158 0.364740 -0.048920
v -0.388507 0.412829 -0.013297
v -0.446852 0.358615 0.018269
v 0.141531 0.010072 -0.113294
v 0.023305 0.002028 -0.080778
v 0.030388 0.127080 -0.087720
v 0.156992 0.163050 0.008466
v 0.176679 0.090854 -0.082312
v -0.156891 1.044479 -0.498673
v 0.164478 1.177658 -0.411845
v 0.374413 1.129794 -0.236254
v 0.186689 1.308397 -0.215524
v -0.082769 1.228790 -0.386697
v -0.000000 1.367278 -0.056545
v -0.205407 1.302040 -0.203576
v -0.057264 1.299306 0.164211
v -0.269711 1.271021 0.022907
v -0.367467 1.112324 0.059768
v 0.358464 0.970668 -0.348749
v -0.374891 0.930801 -0.299528
v -0.374413 1.129794 -0.236254
v 0.269711 1.271021 0.022907
v 0.156989 1.254008 0.176043
v -0.000000 0.615692 0.199187
vt 0.110672 0.532551
vt 0.080703 0.277455
vt 0.045489 0.400492
vt 0.104474 0.290521
vt 0.074871 0.281144
vt 0.123599 0.516610
vt 0.249089 0.205516
vt 0.292768 0.209760
vt 0.238601 0.188083
vt 0.049518 0.318462
vt 0.109113 0.269009
vt 0.063482 0.492392
vt 0.314637 0.693834
vt 0.272615 0.279496
vt 0.315428 0.436975
vt 0.314637 0.693834
vt 0.315428 0.436975
vt 0.265216 0.262047
vt 0.305802 0.226151
vt 0.109113 0.269009
vt 0.049518 0.318462
vt 0.063482 0.492392
vt 0.305802 0.226151
vt 0.867736 0.328139
vt 0.763146 0.419962
vt 0.671754 0.328425
vt 0.833679 0.534796
vt 0.736955 0.529585
vt 0.960694 0.527633
vt 0.885177 0.512707
vt 0.934049 0.426335
vt 0.871675 0.323031
vt 0.895098 0.533553
vt 0.833228 0.536637
vt 0.853455 0.386257
vt 0.758073 0.346391
vt 0.736955 0.529585
vt 0.639241 0.445152
vt 0.771714 0.811694
vt 0.744849 0.681460
vt 0.676698 0.713881
vt 0.661925 0.814938
vt 0.683076 0.655175
vt 0.857091 0.764003
vt 0.964241 0.948499
vt 0.718478 0.717336
vt 0.772506 0.805837
vt 0.609986 0.223101
vt 0.676378 0.222070
vt 0.596174 0.272149
vt 0.609986 0.223101
vt 0.596174 0.272149
vt 0.676378 0.222070
vt 0.857091 0.764003
vt 0.487337 0.262269
vt 0.467867 0.365542
vt 0.432947 0.257789
vt 0.432947 0.257789
vt 0.415791 0.382159
vt 0.467867 0.365542
vt 0.410218 0.336304
vt 0.837549 0.969482
vt 0.858492 0.947070
vt 0.487337 0.262269
vt 0.355609 0.240795
vt 0.403970 0.284905
vt 0.421322 0.425825
vt 0.355636 0.349603
vt 0.371647 0.404551
vt 0.546462 0.061395
vt 0.375398 0.171912
vt 0.540923 0.182566
vt 0.380100 0.062012
vt 0.513497 0.392502
vt 0.572538 0.354866
vt 0.553745 0.327285
vt 0.564376 0.259814
vt 0.340183 0.285844
vt 0.465307 0.935934
vt 0.454198 0.649097
vt 0.500063 0.879821
vt 0.486979 0.568052
vt 0.544192 0.785311
vt 0.455250 0.460272
vt 0.478045 0.642496
vt 0.492931 0.891346
vt 0.514577 0.590437
vt 0.566527 0.807739
vt 0.675756 0.807201
vt 0.848981 0.957247
vt 0.421308 0.662919
vt 0.367044 0.522920
vt 0.661098 0.883915
vt 0.703448 0.161685
vt 0.604797 0.075334
vt 0.611524 0.157184
vt 0.706752 0.083555
vt 0.660695 0.897240
vt 0.592015 0.906883
vt 0.717691 0.900025
vt 0.700179 0.098427
vt 0.621119 0.042428
vt 0.705537 0.881291
vt 0.778253 0.092010
vt 0.809037 0.129893
vt 0.794314 0.194660
vt 0.822121 0.191029
vt 0.869601 0.166847
vt 0.892967 0.109731
vt 0.889132 0.122265
vt 0.805711 0.027946
vt 0.738590 0.108878
vt 0.735970 0.020610
vt 0.786979 0.126367
vt 0.982329 0.113533
vt 0.951035 0.085439
vt 0.993176 0.020342
vt 0.928926 0.013028
vt 0.927385 0.116837
vt 0.850646 0.038940
vt 0.927012 0.197320
vt 0.831053 0.120317
vt 0.764889 0.099864
vt 0.897942 0.193262
vt 0.703781 0.027163
vt 0.621119 0.042428
vt 0.700179 0.098427
vt 0.604797 0.075334
vt 0.706752 0.083555
vt 0.766653 0.182210
vt 0.619070 0.166821
vt 0.703448 0.161685
vt 0.955968 0.187542
vt 0.602453 0.145599
vt 0.363807 0.737998
vt 0.365858 0.636424
vt 0.269990 0.073309
vt 0.227379 0.073309
vt 0.216585 0.329085
vt 0.252623 0.077110
vt 0.268527 0.073309
vt 0.238979 0.073309
vt 0.236679 0.073309
vt 0.303784 0.238761
vt 0.805711 0.027947
vt 0.846934 0.162556
vt 0.850646 0.038940
vt 0.892967 0.109731
vt 0.889132 0.122265
vt 0.869601 0.166847
vt 0.735969 0.020613
vt 0.738590 0.108876
vt 0.764889 0.099864
vt 0.778252 0.092011
vt 0.809037 0.129893
vt 0.822121 0.191029
vt 0.927385 0.116837
vt 0.928926 0.013028
vt 0.951035 0.085439
vt 0.831053 0.120317
vt 0.794314 0.194660
vt 0.897942 0.193262
vt 0.927012 0.197320
vt 0.993176 0.020344
vt 0.982330 0.113533
vt 0.786979 0.126367
vt 0.703782 0.027163
vt 0.766653 0.182209
vt 0.955968 0.187542
vt 0.355609 0.240795
vt 0.355636 0.349603
vt 0.340183 0.285844
vt 0.564376 0.259814
vt 0.572538 0.354866
vt 0.553745 0.327285
vt 0.389264 0.410540
vt 0.532273 0.385422
vt 0.540923 0.182566
vt 0.375398 0.171912
vt 0.546462 0.061395
vt 0.380100 0.062012
vt 0.254523 0.755859
vt 0.271186 0.928562
vt 0.307324 0.910053
vt 0.065952 0.890379
vt 0.126524 0.782076
vt 0.112761 0.881044
vt 0.137955 0.781487
vt 0.042741 0.672102
vt 0.228533 0.867243
vt 0.286747 0.808952
vt 0.242170 0.704284
vt 0.307324 0.910053
vt 0.312573 0.855277
vt 0.270031 0.931054
vt 0.135751 0.716067
vt 0.157251 0.445831
vt 0.042839 0.699111
vt 0.135751 0.716067
vt 0.154636 0.464528
vt 0.257113 0.571304
vt 0.313335 0.420941
vt 0.309397 0.689588
vt 0.233038 0.764958
vt 0.237317 0.695405
vt 0.293800 0.804070
vt 0.264023 0.796009
vt 0.059687 0.602892
vt 0.095238 0.481907
vt 0.048627 0.790306
vt 0.096873 0.728016
vt 0.309397 0.689588
vt 0.306216 0.455287
vt 0.263043 0.680332
vt 0.257365 0.408417
vt 0.264162 0.379030
vt 0.250117 0.694845
vt 0.286747 0.808952
vt 0.312573 0.855277
vt 0.266990 0.689044
vt 0.293800 0.804070
vt 0.259674 0.837329
vt 0.265591 0.579290
vt 0.042839 0.699111
vt 0.337687 0.604644
vt 0.582612 0.893810
vt 0.559899 0.971598
vt 0.539820 0.954926
vt 0.592632 0.791012
vt 0.389151 0.269784
vt 0.871393 0.136688
vt 0.921129 0.693650
vt 0.871393 0.136688
vt 0.563472 0.814771
vn -0.3969 0.2932 0.8697
vn -0.3776 -0.4472 0.8108
vn 0.1814 0.0618 0.9814
vn 0.3172 -0.7654 -0.5599
vn -0.2203 -0.8229 -0.5237
vn 0.3286 -0.1182 -0.9370
vn 0.6312 -0.7697 -0.0957
vn 0.6138 -0.6657 0.4243
vn 0.9623 -0.1400 0.2329
vn 0.8521 0.2845 0.4393
vn 0.4426 -0.3996 0.8027
vn -0.8568 0.2848 0.4298
vn -0.9560 -0.1301 0.2627
vn -0.6241 -0.6524 0.4298
vn -0.7214 -0.6704 -0.1733
vn 0.5055 -0.8012 -0.3201
vn 0.7039 -0.2901 0.6483
vn 0.1744 -0.8062 0.5653
vn 0.9923 -0.0360 -0.1182
vn 0.3109 0.0816 0.9469
vn 0.1700 -0.0932 -0.9810
vn 0.5908 -0.0954 -0.8011
vn -0.3681 -0.3517 -0.8607
vn -0.2657 -0.9041 -0.3347
vn -0.5719 0.1039 -0.8137
vn -0.9893 0.0392 -0.1408
vn -0.8622 -0.5055 0.0316
vn -0.4903 -0.6763 0.5497
vn -0.7079 0.1260 0.6949
vn -0.1246 -0.0929 0.9878
vn -0.6163 0.4837 0.6214
vn -0.3887 0.4715 0.7915
vn 0.3555 0.4937 0.7936
vn -0.2673 0.7413 0.6157
vn -0.3706 0.1565 -0.9155
vn -0.0181 0.8186 -0.5740
vn 0.5713 0.2153 0.7920
vn 0.3457 0.0885 -0.9341
vn 0.7453 -0.5080 0.4317
vn 0.4087 0.6101 0.6787
vn -0.3399 -0.5510 0.7621
vn 0.3127 -0.5253 0.7913
vn 0.6465 0.6779 0.3500
vn -0.4344 0.5750 0.6933
vn -0.8604 0.3186 0.3977
vn 0.2373 0.8973 0.3720
vn 0.3405 0.8025 -0.4899
vn -0.7453 -0.5080 0.4317
vn 0.5712 -0.6338 -0.5215
vn 0.9296 -0.2741 0.2466
vn -0.4953 0.8646 -0.0844
vn 0.5070 0.5717 -0.6450
vn -0.3720 -0.5483 -0.7490
vn -0.7429 0.2981 -0.5993
vn 0.3130 -0.4488 0.8370
vn 0.7496 -0.3945 0.5314
vn 0.6588 -0.6886 0.3029
vn -0.6958 -0.6787 -0.2351
vn -0.4170 -0.8759 -0.2428
vn 0.0031 -0.9723 -0.2337
vn -0.8594 -0.3916 0.3287
vn -0.6179 -0.6530 0.4378
vn 0.6970 -0.6207 -0.3591
vn 0.2151 -0.9040 -0.3694
vn -0.3398 0.9186 -0.2015
vn -0.5783 -0.1862 0.7942
vn -0.0528 -0.8670 0.4955
vn -0.3286 0.9359 0.1267
vn 0.2813 0.0037 0.9596
vn 0.0713 -0.1013 -0.9923
vn 0.5438 -0.8382 -0.0399
vn 0.4327 0.7841 -0.4449
vn 0.8896 -0.4495 0.0813
vn 0.9150 -0.3967 -0.0730
vn 0.9092 -0.3532 -0.2204
vn 0.5148 -0.7400 0.4327
vn -0.2984 -0.9535 -0.0427
vn 0.4498 -0.6288 0.6342
vn -0.2825 0.0091 0.9592
vn 0.5691 0.7725 0.2817
vn 0.3135 0.6363 0.7049
vn 0.3459 0.9275 0.1413
vn -0.0612 -0.1107 -0.9919
vn 0.8457 -0.4908 0.2094
vn -0.0370 -0.0538 0.9979
vn 0.3095 -0.1941 0.9309
vn -0.2451 -0.4511 0.8581
vn 0.3006 -0.9528 -0.0417
vn -0.9092 -0.3532 -0.2204
vn -0.4327 0.7841 -0.4449
vn -0.5148 -0.7400 0.4327
vn -0.4498 -0.6288 0.6342
vn -0.3135 0.6363 0.7049
vn -0.5438 -0.8382 -0.0398
vn -0.9150 -0.3967 -0.0730
vn -0.5691 0.7725 0.2817
vn -0.8896 -0.4495 0.0813
vn -0.8457 -0.4908 0.2094
vn -0.5737 -0.6391 -0.5122
vn -0.5058 0.5945 -0.6251
vn 0.3720 -0.5483 -0.7490
vn 0.7429 0.2981 -0.5993
vn 0.4577 0.8873 -0.0568
vn 0.3381 0.5634 -0.7537
vn 0.3659 0.8781 -0.3084
vn 0.8606 0.4169 -0.2923
vn -0.1741 0.7323 -0.6583
vn -0.4124 0.8582 -0.3056
vn 0.0035 0.9999 0.0137
vn -0.6021 0.7537 0.2632
vn -0.1323 0.7917 0.5964
vn -0.8459 0.4174 -0.3320
vn 0.8304 -0.0540 -0.5545
vn -0.8661 -0.1575 -0.4743
vn -0.3674 0.2751 -0.8884
vn 0.6012 0.7673 0.2230
vn 0.3711 0.6427 0.6702
vn -0.2577 -0.2813 -0.9243
vn 0.0117 -0.2186 0.9757
usemtl Material__128
s 1
f 2/1/1 9/2/2 1/3/3
f 5/4/4 3/5/5 10/6/6
f 5/7/4 7/8/7 3/9/5
f 13/10/8 7/11/7 14/12/9
f 15/13/10 8/14/11 14/15/9
f 113/16/12 11/17/13 9/18/2
f 11/17/13 12/19/14 9/18/2
f 4/20/15 12/21/14 11/22/13
f 8/14/11 13/23/8 14/15/9
f 17/24/16 18/25/17 16/26/18
f 19/27/19 20/28/20 18/25/17
f 22/29/21 21/30/22 23/31/23
f 21/30/22 17/24/16 23/31/23
f 17/24/16 26/32/24 23/31/23
f 17/24/16 19/27/19 18/25/17
f 17/24/16 21/30/22 19/27/19
f 16/26/18 26/32/24 17/24/16
f 27/33/25 23/31/23 28/34/26
f 23/31/23 29/35/27 28/34/26
f 26/32/24 29/35/27 23/31/23
f 29/35/27 26/32/24 30/36/28
f 26/32/24 16/26/18 30/36/28
f 28/34/26 29/35/27 24/37/29
f 30/36/28 16/26/18 25/38/30
f 29/35/27 30/36/28 24/37/29
f 25/38/30 16/26/18 18/25/17
f 24/37/29 30/36/28 25/38/30
f 24/37/29 63/39/31 28/34/26
f 24/37/29 33/40/32 63/39/31
f 18/25/17 31/41/33 25/38/30
f 32/42/34 33/43/32 31/41/33
f 34/44/35 27/33/25 28/34/26
f 66/45/36 22/29/21 27/33/25
f 66/45/36 21/30/22 22/29/21
f 31/46/33 20/28/20 36/47/37
f 18/48/17 20/49/20 31/50/33
f 25/51/30 33/52/32 24/53/29
f 63/39/31 34/44/35 28/34/26
f 21/30/22 35/54/38 19/27/19
f 35/54/38 36/47/37 19/27/19
f 36/47/37 20/28/20 19/27/19
f 25/38/30 31/41/33 33/43/32
f 23/31/23 27/33/25 22/29/21
f 35/54/38 21/30/22 66/45/36
f 42/55/39 46/56/40 41/57/41
f 38/58/42 44/59/43 40/60/44
f 45/61/45 41/57/41 46/56/40
f 37/62/46 47/63/47 66/45/36
f 47/63/47 35/54/38 66/45/36
f 38/58/42 40/60/44 43/64/48
f 38/58/42 51/65/49 39/66/50
f 40/60/44 44/59/43 50/67/51
f 44/59/43 52/68/52 50/69/51
f 51/70/49 43/71/48 48/72/53
f 51/70/49 38/73/42 43/71/48
f 39/66/50 44/59/43 38/58/42
f 51/65/49 52/68/52 39/66/50
f 52/68/52 44/59/43 39/66/50
f 50/74/51 43/64/48 40/60/44
f 52/75/52 49/76/54 50/74/51
f 49/76/54 52/75/52 48/77/53
f 48/77/53 43/64/48 49/76/54
f 48/78/53 52/68/52 51/65/49
f 49/76/54 43/64/48 50/74/51
f 53/79/55 55/80/56 54/81/57
f 58/82/58 59/83/59 57/84/60
f 58/82/58 61/85/61 60/86/62
f 55/80/56 56/87/63 54/81/57
f 54/81/57 56/87/63 65/88/64
f 56/87/63 57/84/60 65/88/64
f 57/84/60 59/83/59 65/88/64
f 33/40/32 32/89/34 63/39/31
f 66/45/36 34/44/35 62/90/65
f 66/45/36 27/33/25 34/44/35
f 64/91/66 61/85/61 68/92/67
f 37/93/46 32/42/34 31/41/33
f 67/94/68 63/95/31 62/96/65
f 67/94/68 93/97/69 63/95/31
f 68/92/67 57/84/60 56/87/63
f 58/82/58 60/86/62 59/83/59
f 62/98/65 32/42/34 66/99/36
f 32/42/34 37/93/46 66/99/36
f 60/86/62 61/85/61 64/91/66
f 58/82/58 57/84/60 68/92/67
f 63/39/31 32/89/34 62/100/65
f 89/101/70 62/96/65 34/102/35
f 61/85/61 58/82/58 68/92/67
f 55/80/56 68/92/67 56/87/63
f 37/103/46 31/46/33 36/47/37
f 71/104/71 74/105/72 69/106/73
f 71/104/71 70/107/74 74/105/72
f 80/108/75 74/109/72 75/110/76
f 77/111/77 72/112/78 73/113/79
f 77/111/77 71/104/71 72/112/78
f 71/104/71 69/106/73 78/114/80
f 72/115/78 79/116/81 73/117/79
f 81/118/82 78/119/80 74/109/72
f 81/118/82 79/116/81 78/119/80
f 76/120/83 74/109/72 80/108/75
f 78/119/80 69/121/73 74/109/72
f 77/111/77 75/122/76 71/104/71
f 70/107/74 71/104/71 75/122/76
f 79/123/81 72/112/78 71/104/71
f 75/110/76 74/109/72 70/124/74
f 80/108/75 77/111/77 76/120/83
f 80/108/75 75/122/76 77/111/77
f 73/117/79 79/116/81 81/118/82
f 74/109/72 76/120/83 81/118/82
f 77/125/77 35/126/38 76/127/83
f 35/126/38 77/125/77 36/128/37
f 77/125/77 73/129/79 36/128/37
f 82/130/84 79/123/81 71/104/71
f 82/130/84 71/104/71 78/114/80
f 76/127/83 47/131/47 81/132/82
f 82/133/84 78/119/80 79/116/81
f 37/134/46 81/132/82 47/131/47
f 47/131/47 76/127/83 35/126/38
f 73/129/79 81/132/82 36/128/37
f 36/128/37 81/132/82 37/134/46
f 84/135/85 64/91/66 83/136/86
f 55/80/56 84/135/85 83/136/86
f 54/137/57 65/138/64 13/23/8
f 65/138/64 7/8/7 13/23/8
f 65/138/64 3/9/5 7/8/7
f 8/14/11 1/139/3 9/18/2
f 12/19/14 59/140/59 60/141/62
f 8/14/11 54/137/57 13/23/8
f 8/14/11 53/142/55 54/137/57
f 8/14/11 9/18/2 53/142/55
f 9/18/2 85/143/87 53/142/55
f 65/138/64 59/140/59 3/9/5
f 59/140/59 4/144/15 3/9/5
f 9/18/2 12/19/14 60/141/62
f 59/140/59 12/19/14 4/144/15
f 60/141/62 85/143/87 9/18/2
f 88/145/88 92/146/89 89/147/70
f 92/146/89 90/148/90 89/147/70
f 91/149/91 90/148/90 92/150/89
f 93/151/69 94/152/92 88/145/88
f 94/152/92 95/153/93 86/154/94
f 90/155/90 96/156/95 86/154/94
f 90/148/90 97/157/96 67/158/68
f 97/157/96 95/159/93 67/158/68
f 86/154/94 91/160/91 88/145/88
f 92/146/89 88/145/88 91/160/91
f 90/155/90 86/154/94 87/161/97
f 94/152/92 86/154/94 88/145/88
f 86/154/94 96/156/95 91/160/91
f 91/149/91 96/162/95 90/148/90
f 97/157/96 90/148/90 87/163/97
f 93/164/69 95/159/93 94/165/92
f 97/166/96 87/161/97 86/154/94
f 62/96/65 89/101/70 67/94/68
f 34/102/35 88/167/88 89/101/70
f 86/154/94 95/153/93 98/168/98
f 89/147/70 90/148/90 67/158/68
f 93/97/69 88/167/88 63/95/31
f 88/167/88 34/102/35 63/95/31
f 93/164/69 67/158/68 95/159/93
f 97/166/96 86/154/94 98/168/98
f 98/169/98 95/159/93 97/157/96
f 100/170/99 101/171/100 99/172/101
f 99/173/101 101/174/100 103/175/102
f 101/171/100 45/61/45 102/176/103
f 99/173/101 103/175/102 42/55/39
f 103/175/102 102/177/103 42/55/39
f 102/177/103 46/56/40 42/55/39
f 100/170/99 41/57/41 45/61/45
f 46/56/40 102/176/103 45/61/45
f 101/174/100 102/177/103 103/175/102
f 99/178/101 42/179/39 100/180/99
f 100/180/99 42/179/39 41/181/41
f 100/170/99 45/61/45 101/171/100
f 105/182/104 107/183/105 106/184/106
f 108/185/107 107/186/105 105/187/104
f 107/186/105 110/188/108 109/189/109
f 109/190/109 112/191/110 111/192/111
f 112/191/110 116/193/112 113/194/12
f 109/190/109 110/195/108 112/191/110
f 106/196/106 14/12/9 114/197/113
f 113/198/12 116/199/112 11/22/13
f 116/199/112 115/200/114 11/22/13
f 115/200/114 4/20/15 11/22/13
f 104/201/115 115/202/114 116/203/112
f 110/195/108 108/204/107 116/193/112
f 108/204/107 104/205/115 116/193/112
f 117/206/116 118/207/117 15/13/10
f 104/208/115 10/6/6 6/209/118
f 2/1/1 1/3/3 111/210/111
f 1/3/3 118/211/117 111/210/111
f 106/212/106 114/213/113 105/214/104
f 114/213/113 10/215/6 105/214/104
f 10/215/6 104/201/115 105/214/104
f 6/216/118 115/202/114 104/201/115
f 6/216/118 3/9/5 115/202/114
f 111/192/111 118/217/117 109/190/109
f 114/213/113 5/7/4 10/215/6
f 112/191/110 110/195/108 116/193/112
f 6/209/118 10/6/6 3/5/5
f 114/197/113 14/12/9 7/11/7
f 107/183/105 117/218/116 106/184/106
f 117/218/116 15/219/10 106/184/106
f 118/217/117 117/218/116 109/190/109
f 117/218/116 107/183/105 109/190/109
f 108/204/107 105/182/104 104/205/115
f 113/16/12 2/220/1 112/221/110
f 2/220/1 111/222/111 112/221/110
f 8/14/11 15/13/10 1/223/3
f 15/13/10 118/207/117 1/223/3
f 115/202/114 3/9/5 4/144/15
f 5/7/4 114/213/113 7/8/7
f 9/18/2 2/220/1 113/16/12
f 15/224/10 14/12/9 106/196/106
f 107/186/105 108/185/107 110/188/108
f 119/225/119 64/91/66 68/92/67
f 119/226/119 83/227/86 64/228/66
f 68/92/67 55/80/56 119/225/119
f 119/225/119 55/80/56 83/136/86
usemtl Material__129
f 53/229/55 84/230/85 55/231/56
f 60/232/62 64/233/66 85/234/87
f 64/233/66 84/230/85 85/234/87
f 84/230/85 53/229/55 85/234/87
