# Blender v2.92.0 OBJ File: ''
# www.blender.org
mtllib Coin_LOD3.mtl
o Coin__BodyMT_Mesh
v -0.000181 -0.000000 0.206683
v 0.267641 1.046731 0.189592
v -0.329674 1.055334 0.182504
v -0.000181 -0.000000 0.206683
v -1.093979 0.143944 0.185936
v -0.847746 -0.650335 0.189930
v -0.280348 -1.046108 0.188676
v 0.274282 -1.023471 0.190413
v 0.351757 1.050921 0.184986
v 1.093979 0.143944 0.185936
v 0.847746 -0.650335 0.189930
v 0.291670 -1.040293 0.189594
v 0.267641 1.046731 -0.189591
v -0.000181 0.000000 -0.206683
v -0.287073 1.036863 -0.189025
v -0.000181 0.000000 -0.206683
v -0.847746 0.650335 -0.189930
v -1.093979 -0.143944 -0.185936
v -0.650497 -0.847584 -0.189930
v 0.144029 -1.093842 -0.185936
v 0.938041 -0.541453 -0.188677
v 1.019452 0.422097 -0.185934
v 0.291670 1.040293 -0.189594
v -1.274944 0.041751 0.190414
v -1.178783 0.019158 -0.190414
v -0.002434 1.076989 0.190414
v -0.011547 1.136669 -0.190414
v 1.178783 -0.019158 0.190414
v 1.202715 -0.023799 -0.190414
v 0.011547 -1.136669 0.190414
v 0.008630 -1.118236 -0.190414
v 0.002434 1.076989 0.190414
v 1.274944 0.041751 0.190414
v 0.011547 1.136669 -0.190413
v 1.178783 0.019158 -0.190414
v -0.002434 -1.076989 -0.190414
v -0.011547 -1.136669 0.190413
v -1.178783 -0.019158 0.190414
v -1.274944 -0.041751 -0.190414
vt 0.672694 0.981476
vt 0.561990 0.563714
vt 0.452658 0.983281
vt 0.561990 0.563714
vt 0.685825 0.974661
vt 0.971525 0.619883
vt 0.903022 0.305791
vt 0.672167 0.157467
vt 0.454139 0.146288
vt 0.427365 0.971433
vt 0.151189 0.613974
vt 0.224994 0.300199
vt 0.450506 0.147748
vt 0.672694 0.981476
vt 0.452658 0.983281
vt 0.561990 0.563714
vt 0.900450 0.825742
vt 0.675208 0.980435
vt 0.561990 0.563714
vt 0.972051 0.512252
vt 0.824712 0.226497
vt 0.510456 0.153876
vt 0.198336 0.350023
vt 0.177917 0.718672
vt 0.445012 0.981223
vt 0.740849 0.122240
vt 0.748123 0.006729
vt 0.008418 0.122240
vt 0.009904 0.006729
vt 0.743443 0.122240
vt 0.740849 0.006729
vt 0.008418 0.006729
vt 0.009368 0.122240
vt 0.008418 0.122240
vt 0.009904 0.006729
vt 0.748123 0.006729
vt 0.740849 0.122240
vt 0.748123 0.122240
vt 0.009904 0.122240
vt 0.008418 0.006729
vt 0.740849 0.006729
vn -0.0115 0.0196 0.9997
vn -0.0112 0.0040 0.9999
vn -0.0113 0.0173 0.9998
vn -0.0036 0.0031 1.0000
vn -0.0164 0.0191 0.9997
vn -0.0184 0.0080 0.9998
vn -0.0144 -0.0085 0.9999
vn -0.0022 -0.0131 0.9999
vn -0.0122 -0.0142 0.9998
vn 0.0144 0.0052 0.9999
vn 0.0042 0.0031 1.0000
vn 0.0133 0.0132 0.9998
vn 0.0145 -0.0103 0.9998
vn 0.0134 -0.0132 0.9998
vn -0.0013 0.0170 -0.9999
vn -0.0010 0.0147 -0.9999
vn -0.0012 0.0013 -1.0000
vn -0.0146 0.0083 -0.9999
vn -0.0082 0.0151 -0.9999
vn 0.0008 -0.0010 -1.0000
vn -0.0192 -0.0026 -0.9998
vn -0.0101 -0.0132 -0.9999
vn 0.0049 -0.0192 -0.9998
vn 0.0154 -0.0086 -0.9998
vn 0.0183 0.0069 -0.9998
vn 0.0151 0.0124 -0.9998
vn -0.6758 0.7058 -0.2125
vn -0.6736 0.7219 -0.1583
vn -0.6383 0.7652 0.0836
vn -0.6253 0.7687 0.1347
vn 0.6887 -0.7240 0.0383
vn 0.6906 -0.7213 0.0522
vn 0.6778 -0.7347 -0.0281
vn 0.6751 -0.7366 -0.0397
vn 0.6383 0.7652 0.0836
vn 0.6253 0.7687 0.1347
vn 0.6732 0.7221 -0.1593
vn 0.6758 0.7058 -0.2125
vn -0.6736 -0.7219 0.1583
vn -0.6253 -0.7687 -0.1347
vn -0.6390 -0.7647 -0.0827
vn -0.6758 -0.7058 0.2125
usemtl BodyMT
s 1
f 3/1/1 1/2/2 2/3/3
f 4/4/4 3/5/5 5/6/6
f 4/4/4 5/6/6 6/7/7
f 4/4/4 6/7/7 7/8/8
f 4/4/4 7/8/8 8/9/9
f 9/10/10 4/4/11 10/11/12
f 10/11/12 4/4/11 11/12/13
f 11/12/13 4/4/11 12/13/14
f 15/14/15 13/15/16 14/16/17
f 17/17/18 15/18/19 16/19/20
f 18/20/21 17/17/18 16/19/20
f 19/21/22 18/20/21 16/19/20
f 19/21/22 16/19/20 20/22/23
f 20/22/23 16/19/20 21/23/24
f 21/23/24 16/19/20 22/24/25
f 16/19/20 23/25/26 22/24/25
f 25/26/27 24/27/28 27/28/29
f 24/27/28 26/29/30 27/28/29
f 29/30/31 28/31/32 30/32/33
f 31/33/34 29/30/31 30/32/33
f 34/34/35 32/35/36 33/36/37
f 35/37/38 34/34/35 33/36/37
f 39/38/39 36/39/40 37/40/41
f 37/40/41 38/41/42 39/38/39
