# Blender v2.92.0 OBJ File: ''
# www.blender.org
mtllib Coin_LOD2.mtl
o Coin__BodyMT_Mesh
v -0.000181 -0.000000 0.206683
v 0.274282 1.023471 0.190414
v 0.000000 1.059581 0.190414
v -0.274282 1.023471 0.190414
v -0.000181 -0.000000 0.206683
v -0.650497 0.847584 0.189930
v -0.987206 0.408787 0.189930
v -1.059422 -0.139301 0.189930
v -0.847746 -0.650335 0.189930
v -0.529872 -0.917603 0.190414
v -0.139474 -1.059256 0.189930
v 0.274282 -1.023471 0.190413
v 0.274282 1.023471 0.190414
v 0.529872 0.917603 0.190414
v 0.749352 0.749190 0.190414
v 0.987206 0.408786 0.189930
v 1.059422 -0.139303 0.189930
v 0.847746 -0.650335 0.189930
v 0.529872 -0.917603 0.190414
v 0.274282 -1.023471 0.190413
v 0.000000 1.059581 -0.190413
v 0.274282 1.023471 -0.190413
v -0.000181 0.000000 -0.206683
v -0.274282 1.023471 -0.190413
v -0.529872 0.917603 -0.190413
v -0.000181 0.000000 -0.206683
v -0.847746 0.650335 -0.189930
v -1.059422 0.139301 -0.189930
v -0.987206 -0.408787 -0.189930
v -0.749352 -0.749190 -0.190414
v -0.529872 -0.917603 -0.190414
v -0.139474 -1.059256 -0.189930
v 0.408921 -0.987058 -0.189930
v 0.749352 -0.749190 -0.190414
v 0.987206 -0.408786 -0.189930
v 1.059422 0.139303 -0.189930
v 0.847746 0.650335 -0.189930
v 0.529872 0.917603 -0.190414
v 0.274282 1.023471 -0.190413
v -1.059744 0.000000 -0.190414
v -1.059744 -0.000000 0.190414
v -0.848650 0.703829 0.190414
v -0.954886 0.509302 -0.190414
v -0.002434 1.076989 0.190414
v -0.011547 1.136669 -0.190414
v 1.059744 0.000000 -0.190414
v 1.059744 -0.000000 0.190414
v 0.954886 -0.509302 0.190414
v 0.918620 -0.572114 -0.190414
v 0.011547 -1.136669 0.190414
v 0.008630 -1.118236 -0.190414
v 0.002434 1.076989 0.190414
v 0.848650 0.703829 0.190414
v 0.011547 1.136669 -0.190413
v 0.954886 0.509302 -0.190414
v 1.059744 -0.000000 0.190414
v 1.059744 0.000000 -0.190414
v -0.002434 -1.076989 -0.190414
v -0.011547 -1.136669 0.190413
v -0.954886 -0.509302 0.190414
v -0.848650 -0.703830 -0.190414
v -1.059744 0.000000 -0.190414
v -1.059744 -0.000000 0.190414
vt 0.561990 0.563714
vt 0.448753 0.982803
vt 0.561059 0.996551
vt 0.672694 0.981476
vt 0.561990 0.563714
vt 0.821316 0.904349
vt 0.956591 0.729386
vt 0.986447 0.510467
vt 0.903022 0.305791
vt 0.780346 0.191989
vt 0.618967 0.140490
vt 0.454139 0.146288
vt 0.448753 0.982803
vt 0.341253 0.937392
vt 0.252918 0.866957
vt 0.164383 0.724068
vt 0.138005 0.503967
vt 0.224994 0.300199
vt 0.349752 0.188235
vt 0.454139 0.146288
vt 0.561059 0.996551
vt 0.448753 0.982803
vt 0.561990 0.563714
vt 0.672694 0.981476
vt 0.776593 0.938460
vt 0.561990 0.563714
vt 0.900450 0.825742
vt 0.985913 0.621798
vt 0.958178 0.402620
vt 0.869078 0.261006
vt 0.780346 0.191989
vt 0.618967 0.140490
vt 0.401945 0.167262
vt 0.259739 0.255879
vt 0.168137 0.396326
vt 0.136701 0.615634
vt 0.219135 0.821713
vt 0.341253 0.937392
vt 0.448753 0.982803
vt 0.738567 0.122240
vt 0.738567 0.006729
vt 0.512194 0.122240
vt 0.416932 0.006729
vt 0.008418 0.122240
vt 0.009904 0.006729
vt 0.738567 0.122240
vt 0.738567 0.006729
vt 0.512194 0.006729
vt 0.480524 0.122240
vt 0.008418 0.006729
vt 0.009368 0.122240
vt 0.008418 0.122240
vt 0.009904 0.006729
vt 0.416932 0.006729
vt 0.512194 0.122240
vt 0.738567 0.006729
vt 0.738567 0.122240
vt 0.416932 0.122240
vt 0.009904 0.122240
vt 0.008418 0.006729
vt 0.512194 0.006729
vt 0.738567 0.122240
vt 0.738567 0.006729
vn -0.0000 0.0000 1.0000
vn 0.0020 0.0154 0.9999
vn 0.0019 0.0156 0.9999
vn -0.0020 0.0157 0.9999
vn -0.0006 -0.0001 1.0000
vn -0.0039 0.0152 0.9999
vn -0.0107 0.0126 0.9999
vn -0.0151 0.0061 0.9999
vn -0.0158 -0.0020 0.9999
vn -0.0138 -0.0093 0.9999
vn -0.0078 -0.0136 0.9999
vn -0.0007 -0.0107 0.9999
vn -0.0096 -0.0139 0.9999
vn 0.0020 0.0156 0.9999
vn 0.0006 -0.0001 1.0000
vn 0.0019 0.0157 0.9999
vn 0.0025 0.0149 0.9999
vn 0.0115 0.0102 0.9999
vn 0.0177 -0.0056 0.9998
vn 0.0136 -0.0116 0.9998
vn 0.0125 -0.0112 0.9999
vn 0.0117 -0.0119 0.9999
vn 0.0019 0.0156 -0.9999
vn 0.0020 0.0154 -0.9999
vn -0.0000 0.0000 -1.0000
vn -0.0020 0.0157 -0.9999
vn -0.0086 0.0133 -0.9999
vn -0.0020 0.0156 -0.9999
vn 0.0000 -0.0001 -1.0000
vn -0.0139 0.0093 -0.9999
vn -0.0158 0.0020 -0.9999
vn -0.0155 -0.0052 -0.9999
vn -0.0125 -0.0110 -0.9999
vn -0.0071 -0.0143 -0.9999
vn 0.0009 -0.0160 -0.9999
vn 0.0046 -0.0159 -0.9999
vn 0.0118 -0.0116 -0.9999
vn 0.0154 -0.0052 -0.9999
vn 0.0159 0.0020 -0.9999
vn 0.0137 0.0093 -0.9999
vn 0.0086 0.0132 -0.9999
vn 0.0020 0.0156 -0.9999
vn -0.9974 0.0720 0.0000
vn -0.9934 0.1044 0.0479
vn -0.8746 0.4832 -0.0399
vn -0.7157 0.6931 -0.0855
vn -0.4425 0.8956 0.0462
vn -0.3989 0.9046 0.1506
vn 0.9960 -0.0863 -0.0211
vn 0.9974 -0.0720 -0.0000
vn 0.8464 -0.5322 0.0198
vn 0.7895 -0.6137 0.0097
vn 0.5233 -0.8520 -0.0178
vn 0.5141 -0.8566 -0.0442
vn 0.4425 0.8956 0.0463
vn 0.3989 0.9046 0.1506
vn 0.7165 0.6922 -0.0858
vn 0.8744 0.4836 -0.0390
vn 0.9934 0.1044 0.0479
vn 0.9974 0.0720 0.0000
vn -0.7158 -0.6931 0.0854
vn -0.3989 -0.9046 -0.1506
vn -0.4433 -0.8952 -0.0453
vn -0.8746 -0.4832 0.0399
vn -0.9934 -0.1044 -0.0479
vn -0.9974 -0.0720 -0.0000
usemtl BodyMT
s 1
f 1/1/1 2/2/2 3/3/3
f 4/4/4 1/1/1 3/3/3
f 5/5/5 4/4/6 6/6/7
f 5/5/5 6/6/7 7/7/8
f 5/5/5 7/7/8 8/8/9
f 5/5/5 8/8/9 9/9/10
f 5/5/5 9/9/10 10/10/11
f 5/5/5 10/10/11 11/11/12
f 5/5/5 11/11/12 12/12/13
f 13/13/14 5/5/15 14/14/16
f 14/14/16 5/5/15 15/15/17
f 15/15/17 5/5/15 16/16/18
f 16/16/18 5/5/15 17/17/19
f 17/17/19 5/5/15 18/18/20
f 18/18/20 5/5/15 19/19/21
f 19/19/21 5/5/15 20/20/22
f 21/21/23 22/22/24 23/23/25
f 24/24/26 21/21/23 23/23/25
f 25/25/27 24/24/28 26/26/29
f 27/27/30 25/25/27 26/26/29
f 28/28/31 27/27/30 26/26/29
f 29/29/32 28/28/31 26/26/29
f 30/30/33 29/29/32 26/26/29
f 31/31/34 30/30/33 26/26/29
f 31/31/34 26/26/29 32/32/35
f 32/32/35 26/26/29 33/33/36
f 33/33/36 26/26/29 34/34/37
f 34/34/37 26/26/29 35/35/38
f 35/35/38 26/26/29 36/36/39
f 26/26/29 37/37/40 36/36/39
f 26/26/29 38/38/41 37/37/40
f 26/26/29 39/39/42 38/38/41
f 40/40/43 41/41/44 43/42/45
f 41/41/44 42/43/46 43/42/45
f 43/42/45 42/43/46 45/44/47
f 42/43/46 44/45/48 45/44/47
f 46/46/49 47/47/50 48/48/51
f 49/49/52 46/46/49 48/48/51
f 49/49/52 48/48/51 50/50/53
f 51/51/54 49/49/52 50/50/53
f 54/52/55 52/53/56 53/54/57
f 55/55/58 54/52/55 53/54/57
f 55/55/58 53/54/57 56/56/59
f 57/57/60 55/55/58 56/56/59
f 61/58/61 58/59/62 59/60/63
f 59/60/63 60/61/64 61/58/61
f 61/58/61 60/61/64 62/62/65
f 60/61/64 63/63/66 62/62/65
