# Blender v2.92.0 OBJ File: ''
# www.blender.org
mtllib Coin_LOD4.mtl
o Coin__BodyMT_Mesh
v 0.090197 0.995010 0.163644
v -0.329674 1.055334 0.182504
v -1.093979 0.143944 0.185936
v -0.564522 -0.977617 0.180625
v 0.142814 -0.857460 0.197348
v 0.351757 1.050921 0.184986
v 1.093979 0.143944 0.185936
v 0.472230 -1.018441 0.173503
v 0.090197 0.995010 -0.163644
v 0.048663 -1.084769 -0.195440
v -0.416258 1.053626 -0.166015
v -1.071115 -0.443540 -0.171205
v 0.938041 -0.541453 -0.188677
v 1.019452 0.422097 -0.185934
v 0.291670 1.040293 -0.189594
v -1.274944 0.041751 0.190414
v -0.002434 1.076989 0.190414
v -0.001878 0.001780 -0.190414
v 0.001878 -0.001781 0.190414
v 0.001878 -0.001781 -0.190414
v 0.001878 0.001781 0.190414
v 0.001878 0.001781 -0.190414
v -0.011547 -1.136669 0.190413
v -1.178783 -0.019158 0.190414
v -0.001878 -0.001780 -0.190414
vt 0.473931 0.222892
vt 0.685825 0.974661
vt 0.971525 0.619883
vt 0.763016 0.215837
vt 0.427365 0.971433
vt 0.561990 0.563714
vt 0.151189 0.613974
vt 0.397258 0.183745
vt 0.925006 0.421012
vt 0.707229 0.958443
vt 0.511466 0.161911
vt 0.198336 0.350023
vt 0.177917 0.718672
vt 0.445012 0.981223
vt 0.748123 0.006729
vt 0.009904 0.006729
vt 0.360982 0.122240
vt 0.008418 0.006729
vt 0.740849 0.006729
vt 0.315065 0.122240
vn -0.0053 -0.0108 0.9999
vn -0.0034 0.0082 1.0000
vn -0.0081 0.0021 1.0000
vn -0.0215 -0.0151 0.9997
vn 0.0053 -0.0042 1.0000
vn 0.0270 -0.0294 0.9992
vn 0.0075 0.0063 1.0000
vn 0.0487 -0.0390 0.9981
vn -0.0161 0.0099 -0.9998
vn -0.0159 0.0110 -0.9998
vn -0.0149 0.0092 -0.9998
vn 0.0070 0.0022 -1.0000
vn 0.0057 0.0010 -1.0000
vn 0.0073 0.0023 -1.0000
vn 0.0065 0.0022 -1.0000
vn -0.2612 0.3228 -0.9097
vn -0.2620 0.3214 -0.9100
vn -0.2620 0.3226 -0.9095
vn -0.2894 -0.3013 -0.9086
vn -0.2894 -0.3023 -0.9082
usemtl BodyMT
s 1
f 5/1/1 2/2/2 3/3/3
f 5/1/1 3/3/3 4/4/4
f 6/5/5 5/6/6 7/7/7
f 7/7/7 5/6/6 8/8/8
f 12/9/9 11/10/10 10/11/11
f 13/12/12 10/11/13 14/13/14
f 10/11/13 15/14/15 14/13/14
f 16/15/16 17/16/17 18/17/18
f 23/18/19 24/19/20 25/20/20
l 2 1
l 9 11
l 19 20
l 21 22
